<?xml version="1.0" standalone="no"?>
<!DOCTYPE svg PUBLIC "-//W3C//DTD SVG 20010904//EN"
 "http://www.w3.org/TR/2001/REC-SVG-20010904/DTD/svg10.dtd">
<svg version="1.0" xmlns="http://www.w3.org/2000/svg"
 width="436.000000pt" height="419.000000pt" viewBox="0 0 436.000000 419.000000"
 preserveAspectRatio="xMidYMid meet">

<g transform="translate(0.000000,419.000000) scale(0.100000,-0.100000)"
fill="#000000" stroke="none">
<path d="M1940 4075 c-109 -12 -277 -48 -379 -81 -65 -22 -235 -87 -241 -94
-3 -3 -41 -22 -84 -43 -148 -72 -331 -203 -475 -341 -259 -250 -451 -579 -535
-918 -42 -170 -68 -390 -47 -402 6 -4 203 -7 437 -6 311 0 430 -2 440 -11 11
-9 14 -46 14 -165 l0 -153 30 -16 c51 -27 70 -20 118 43 l17 23 99 -21 c54
-11 100 -20 102 -20 2 0 1 12 -2 28 -3 15 2 68 12 117 29 157 30 148 -10 208
-20 30 -43 61 -51 67 -39 32 -21 44 193 131 l134 54 20 -25 c16 -20 21 -21 29
-9 5 7 9 17 9 21 0 17 121 127 170 155 152 85 359 87 510 4 54 -30 169 -144
192 -192 55 -114 67 -162 68 -275 0 -44 2 -83 5 -86 3 -3 31 1 63 8 291 70
348 77 568 76 116 0 248 -6 294 -11 105 -14 281 -14 329 -2 135 35 161 41 193
41 48 0 71 23 64 64 -3 17 -8 63 -11 101 -13 134 -74 378 -121 482 -13 28 -24
54 -24 57 0 10 -64 141 -94 191 -38 66 -128 199 -172 255 -41 52 -212 228
-264 270 -257 213 -505 341 -825 426 -223 59 -514 78 -775 49z m573 -115 c223
-38 387 -91 572 -186 211 -108 348 -209 517 -384 236 -243 398 -541 474 -872
15 -65 15 -79 4 -93 -15 -18 -8 -18 -185 6 -381 52 -717 197 -1014 439 -100
81 -245 226 -296 295 -17 22 -35 46 -42 52 -17 19 -103 150 -103 158 0 3 -14
27 -31 51 -61 90 -169 345 -194 461 -10 49 -23 49 -35 1 -39 -151 -179 -471
-212 -486 -5 -2 -8 -9 -8 -14 0 -10 -57 -106 -70 -118 -3 -3 -30 -39 -61 -80
-53 -71 -194 -221 -269 -285 -163 -140 -363 -263 -551 -338 -196 -78 -300
-106 -518 -138 -162 -24 -181 -21 -181 25 0 56 65 286 107 376 41 89 80 168
97 195 158 256 326 443 539 594 105 76 254 162 330 192 29 11 56 24 62 28 12
10 207 73 290 94 63 16 246 44 330 51 102 8 336 -5 448 -24z"/>
<path d="M1620 2399 c-60 -30 -141 -66 -177 -80 -25 -9 -31 -34 -10 -42 6 -2
29 -29 50 -59 l37 -55 -14 -69 c-8 -38 -17 -97 -21 -131 -7 -61 -7 -62 24 -77
41 -22 46 -21 70 17 11 17 28 41 38 52 31 35 153 220 153 234 0 15 -80 224
-89 232 -3 3 -31 -7 -61 -22z"/>
<path d="M222 2134 c-21 -15 -11 -46 18 -55 14 -4 76 -23 138 -43 62 -20 119
-36 127 -36 9 0 23 -4 33 -9 9 -5 28 -13 42 -19 22 -8 30 -25 54 -113 16 -57
42 -144 57 -194 16 -49 45 -145 66 -212 43 -138 29 -124 183 -179 52 -19 102
-42 110 -53 13 -15 15 -46 14 -170 l-1 -152 38 -60 c77 -118 84 -160 45 -261
-29 -75 -39 -167 -25 -223 6 -22 15 -59 20 -83 6 -23 14 -42 17 -42 4 1 33 40
66 88 55 82 190 278 282 411 22 32 57 81 77 109 40 53 44 67 25 76 -7 3 -31
17 -53 31 -22 13 -50 29 -62 34 -12 6 -44 25 -70 43 -26 19 -70 46 -96 62 -32
18 -54 39 -62 60 -11 26 -43 51 -147 116 -73 46 -136 89 -140 95 -14 20 -1 29
73 49 101 29 188 76 245 133 49 51 99 144 108 203 2 19 8 47 11 62 6 24 4 28
-21 33 -16 4 -51 14 -78 22 l-48 15 -38 -41 c-39 -42 -44 -44 -95 -41 -52 3
-94 22 -104 49 -6 14 -9 88 -8 164 l2 138 -394 2 c-266 1 -399 -1 -409 -9z"/>
<path d="M4081 2120 c-157 -45 -298 -46 -696 -9 -124 12 -243 0 -465 -46 -69
-15 -140 -28 -159 -31 -18 -2 -37 -6 -41 -9 -5 -3 -53 -5 -107 -6 -73 0 -114
5 -163 21 -116 38 -152 38 -225 -1 -36 -18 -67 -39 -69 -45 -3 -7 3 -21 12
-32 9 -11 22 -29 29 -39 10 -17 13 -16 40 16 23 26 34 32 51 27 26 -9 28 -31
7 -101 -30 -100 -60 -122 -89 -67 -32 58 -29 58 -100 -2 -37 -31 -71 -54 -75
-51 -5 2 -12 28 -15 57 -10 76 -22 89 -30 32 -11 -84 -8 -114 12 -114 27 0 42
-20 42 -57 0 -41 -19 -51 -66 -34 -19 7 -38 10 -42 7 -4 -2 -6 -26 -3 -53 8
-62 24 -65 90 -13 l52 41 117 -40 c182 -62 186 -63 204 -72 10 -5 25 -9 33 -9
9 0 15 -9 15 -22 0 -38 -20 -98 -32 -98 -7 0 -62 16 -122 34 -216 68 -279 86
-297 86 -10 0 -54 -36 -99 -80 l-81 -79 3 -83 3 -83 55 -6 c139 -16 215 -30
229 -43 17 -18 33 -111 61 -351 17 -147 19 -152 55 -174 l34 -20 22 27 c11 15
46 69 76 120 59 101 90 122 79 53 -4 -29 -2 -42 10 -52 14 -11 18 -10 30 6 8
10 14 24 14 30 0 7 9 40 21 74 l20 63 -20 15 c-20 14 -20 15 23 96 24 45 65
120 91 167 27 47 59 106 72 133 13 26 29 47 36 47 7 0 29 -21 50 -47 116 -151
164 -208 174 -208 6 0 41 28 78 63 38 34 76 62 85 62 15 0 40 -37 40 -60 0
-10 37 -95 72 -168 20 -41 166 -184 194 -190 15 -4 109 93 109 111 0 6 -29 12
-65 14 -133 8 -220 35 -220 68 0 8 23 58 51 110 l51 96 -12 94 c-7 52 -10 101
-7 109 8 19 34 10 42 -13 3 -10 21 -35 39 -56 l35 -39 62 60 c92 88 295 282
352 337 58 57 81 58 85 4 2 -20 6 -37 10 -37 15 0 205 150 234 184 15 18 18
43 18 159 l0 137 -27 -1 c-16 0 -57 -9 -92 -19z"/>
<path d="M1722 1957 c-12 -13 -42 -52 -65 -88 -46 -68 -47 -68 -132 -58 l-29
4 -14 -85 -14 -85 136 -132 c76 -73 144 -133 152 -133 8 0 35 20 61 44 l47 45
1 93 c1 70 7 107 23 148 12 30 22 60 22 67 0 12 -114 156 -147 185 -19 17 -20
17 -41 -5z"/>
<path d="M1964 1065 c-4 -8 17 -50 47 -97 l52 -82 7 -103 c3 -57 3 -125 -1
-151 -3 -26 -12 -83 -18 -127 -19 -130 -20 -132 -59 -156 -131 -78 -155 -89
-241 -103 -49 -8 -101 -20 -117 -28 -16 -8 -56 -20 -89 -27 -33 -7 -64 -14
-70 -16 -5 -1 73 0 175 3 163 4 187 3 199 -12 18 -22 30 -20 53 9 25 32 68 33
134 3 41 -18 73 -22 197 -26 129 -4 150 -2 167 13 17 15 26 16 107 4 48 -7
158 -14 243 -15 220 -3 450 -16 456 -26 3 -4 14 -8 25 -8 11 0 23 -8 26 -18 4
-9 11 -20 17 -24 16 -11 246 -10 246 1 0 12 -62 21 -143 21 -56 0 -76 5 -121
30 -49 28 -68 32 -218 45 -273 24 -345 33 -365 43 -10 5 -41 12 -70 15 -80 9
-134 43 -192 119 -16 22 -40 122 -41 170 0 50 -17 57 -47 19 -13 -17 -34 -31
-45 -31 -34 0 -145 68 -152 93 -3 13 -10 63 -16 112 -6 50 -15 122 -20 160 -5
39 -13 96 -16 127 -7 56 -8 58 -43 68 -49 13 -61 13 -67 -5z"/>
<path d="M3650 830 c-14 -4 -43 -9 -65 -10 -22 -1 -56 -7 -75 -15 -34 -12 -34
-13 -10 -18 14 -3 57 -9 97 -12 65 -5 73 -4 82 14 13 23 14 51 4 50 -5 -1 -19
-5 -33 -9z"/>
<path d="M3744 823 c7 -12 195 -108 200 -102 2 2 6 22 8 44 l3 40 -75 12 c-88
14 -143 16 -136 6z"/>
<path d="M3580 627 c-120 -60 -125 -63 -123 -92 1 -16 4 -66 7 -110 3 -56 8
-79 17 -77 7 2 53 25 102 53 49 27 95 49 102 49 6 0 44 -25 84 -56 40 -30 77
-54 83 -52 5 2 24 49 43 105 30 94 31 103 16 116 -21 18 -196 127 -201 126 -3
0 -61 -28 -130 -62z"/>
<path d="M4077 452 c-2 -42 -3 -78 -2 -80 2 -2 13 2 25 8 17 9 21 18 16 38 -4
15 -9 44 -13 65 -10 63 -20 51 -26 -31z"/>
<path d="M848 103 c6 -2 18 -2 25 0 6 3 1 5 -13 5 -14 0 -19 -2 -12 -5z"/>
<path d="M3570 80 c20 -13 73 -13 65 0 -3 6 -23 10 -43 10 -28 0 -33 -3 -22
-10z"/>
<path d="M3695 60 c28 -12 37 -12 30 0 -3 6 -16 10 -28 9 -21 0 -21 -1 -2 -9z"/>
</g>
</svg>
