<?xml version="1.0" encoding="UTF-8" standalone="no"?>
<!-- Created with Inkscape (http://www.inkscape.org/) -->

<svg
   width="210mm"
   height="297mm"
   viewBox="0 0 210 297"
   version="1.1"
   id="svg5"
   inkscape:version="1.1 (c68e22c387, 2021-05-23)"
   sodipodi:docname="wkb-logo-project.svg"
   xmlns:inkscape="http://www.inkscape.org/namespaces/inkscape"
   xmlns:sodipodi="http://sodipodi.sourceforge.net/DTD/sodipodi-0.dtd"
   xmlns="http://www.w3.org/2000/svg"
   xmlns:svg="http://www.w3.org/2000/svg">
  <sodipodi:namedview
     id="namedview7"
     pagecolor="#ffffff"
     bordercolor="#666666"
     borderopacity="1.0"
     inkscape:pageshadow="2"
     inkscape:pageopacity="0.0"
     inkscape:pagecheckerboard="0"
     inkscape:document-units="mm"
     showgrid="false"
     inkscape:zoom="0.65512531"
     inkscape:cx="341.15611"
     inkscape:cy="136.61509"
     inkscape:window-width="1366"
     inkscape:window-height="705"
     inkscape:window-x="-8"
     inkscape:window-y="-8"
     inkscape:window-maximized="1"
     inkscape:current-layer="g8074" />
  <defs
     id="defs2" />
  <g
     inkscape:label="Layer 1"
     inkscape:groupmode="layer"
     id="layer1"
     sodipodi:insensitive="true"
     style="display:none">
    <g
       transform="matrix(0.01363336,0,0,-0.01363336,9.8732276,72.229266)"
       fill="#000000"
       stroke="none"
       id="g69">
      <path
         d="m 1940,4075 c -109,-12 -277,-48 -379,-81 -65,-22 -235,-87 -241,-94 -3,-3 -41,-22 -84,-43 -148,-72 -331,-203 -475,-341 -259,-250 -451,-579 -535,-918 -42,-170 -68,-390 -47,-402 6,-4 203,-7 437,-6 311,0 430,-2 440,-11 11,-9 14,-46 14,-165 v -153 l 30,-16 c 51,-27 70,-20 118,43 l 17,23 99,-21 c 54,-11 100,-20 102,-20 2,0 1,12 -2,28 -3,15 2,68 12,117 29,157 30,148 -10,208 -20,30 -43,61 -51,67 -39,32 -21,44 193,131 l 134,54 20,-25 c 16,-20 21,-21 29,-9 5,7 9,17 9,21 0,17 121,127 170,155 152,85 359,87 510,4 54,-30 169,-144 192,-192 55,-114 67,-162 68,-275 0,-44 2,-83 5,-86 3,-3 31,1 63,8 291,70 348,77 568,76 116,0 248,-6 294,-11 105,-14 281,-14 329,-2 135,35 161,41 193,41 48,0 71,23 64,64 -3,17 -8,63 -11,101 -13,134 -74,378 -121,482 -13,28 -24,54 -24,57 0,10 -64,141 -94,191 -38,66 -128,199 -172,255 -41,52 -212,228 -264,270 -257,213 -505,341 -825,426 -223,59 -514,78 -775,49 z m 573,-115 c 223,-38 387,-91 572,-186 211,-108 348,-209 517,-384 236,-243 398,-541 474,-872 15,-65 15,-79 4,-93 -15,-18 -8,-18 -185,6 -381,52 -717,197 -1014,439 -100,81 -245,226 -296,295 -17,22 -35,46 -42,52 -17,19 -103,150 -103,158 0,3 -14,27 -31,51 -61,90 -169,345 -194,461 -10,49 -23,49 -35,1 -39,-151 -179,-471 -212,-486 -5,-2 -8,-9 -8,-14 0,-10 -57,-106 -70,-118 -3,-3 -30,-39 -61,-80 -53,-71 -194,-221 -269,-285 -163,-140 -363,-263 -551,-338 -196,-78 -300,-106 -518,-138 -162,-24 -181,-21 -181,25 0,56 65,286 107,376 41,89 80,168 97,195 158,256 326,443 539,594 105,76 254,162 330,192 29,11 56,24 62,28 12,10 207,73 290,94 63,16 246,44 330,51 102,8 336,-5 448,-24 z"
         id="path43" />
      <path
         d="m 1620,2399 c -60,-30 -141,-66 -177,-80 -25,-9 -31,-34 -10,-42 6,-2 29,-29 50,-59 l 37,-55 -14,-69 c -8,-38 -17,-97 -21,-131 -7,-61 -7,-62 24,-77 41,-22 46,-21 70,17 11,17 28,41 38,52 31,35 153,220 153,234 0,15 -80,224 -89,232 -3,3 -31,-7 -61,-22 z"
         id="path45" />
      <path
         d="m 222,2134 c -21,-15 -11,-46 18,-55 14,-4 76,-23 138,-43 62,-20 119,-36 127,-36 9,0 23,-4 33,-9 9,-5 28,-13 42,-19 22,-8 30,-25 54,-113 16,-57 42,-144 57,-194 16,-49 45,-145 66,-212 43,-138 29,-124 183,-179 52,-19 102,-42 110,-53 13,-15 15,-46 14,-170 l -1,-152 38,-60 c 77,-118 84,-160 45,-261 -29,-75 -39,-167 -25,-223 6,-22 15,-59 20,-83 6,-23 14,-42 17,-42 4,1 33,40 66,88 55,82 190,278 282,411 22,32 57,81 77,109 40,53 44,67 25,76 -7,3 -31,17 -53,31 -22,13 -50,29 -62,34 -12,6 -44,25 -70,43 -26,19 -70,46 -96,62 -32,18 -54,39 -62,60 -11,26 -43,51 -147,116 -73,46 -136,89 -140,95 -14,20 -1,29 73,49 101,29 188,76 245,133 49,51 99,144 108,203 2,19 8,47 11,62 6,24 4,28 -21,33 -16,4 -51,14 -78,22 l -48,15 -38,-41 c -39,-42 -44,-44 -95,-41 -52,3 -94,22 -104,49 -6,14 -9,88 -8,164 l 2,138 -394,2 c -266,1 -399,-1 -409,-9 z"
         id="path47" />
      <path
         d="m 4081,2120 c -157,-45 -298,-46 -696,-9 -124,12 -243,0 -465,-46 -69,-15 -140,-28 -159,-31 -18,-2 -37,-6 -41,-9 -5,-3 -53,-5 -107,-6 -73,0 -114,5 -163,21 -116,38 -152,38 -225,-1 -36,-18 -67,-39 -69,-45 -3,-7 3,-21 12,-32 9,-11 22,-29 29,-39 10,-17 13,-16 40,16 23,26 34,32 51,27 26,-9 28,-31 7,-101 -30,-100 -60,-122 -89,-67 -32,58 -29,58 -100,-2 -37,-31 -71,-54 -75,-51 -5,2 -12,28 -15,57 -10,76 -22,89 -30,32 -11,-84 -8,-114 12,-114 27,0 42,-20 42,-57 0,-41 -19,-51 -66,-34 -19,7 -38,10 -42,7 -4,-2 -6,-26 -3,-53 8,-62 24,-65 90,-13 l 52,41 117,-40 c 182,-62 186,-63 204,-72 10,-5 25,-9 33,-9 9,0 15,-9 15,-22 0,-38 -20,-98 -32,-98 -7,0 -62,16 -122,34 -216,68 -279,86 -297,86 -10,0 -54,-36 -99,-80 l -81,-79 3,-83 3,-83 55,-6 c 139,-16 215,-30 229,-43 17,-18 33,-111 61,-351 17,-147 19,-152 55,-174 l 34,-20 22,27 c 11,15 46,69 76,120 59,101 90,122 79,53 -4,-29 -2,-42 10,-52 14,-11 18,-10 30,6 8,10 14,24 14,30 0,7 9,40 21,74 l 20,63 -20,15 c -20,14 -20,15 23,96 24,45 65,120 91,167 27,47 59,106 72,133 13,26 29,47 36,47 7,0 29,-21 50,-47 116,-151 164,-208 174,-208 6,0 41,28 78,63 38,34 76,62 85,62 15,0 40,-37 40,-60 0,-10 37,-95 72,-168 20,-41 166,-184 194,-190 15,-4 109,93 109,111 0,6 -29,12 -65,14 -133,8 -220,35 -220,68 0,8 23,58 51,110 l 51,96 -12,94 c -7,52 -10,101 -7,109 8,19 34,10 42,-13 3,-10 21,-35 39,-56 l 35,-39 62,60 c 92,88 295,282 352,337 58,57 81,58 85,4 2,-20 6,-37 10,-37 15,0 205,150 234,184 15,18 18,43 18,159 v 137 l -27,-1 c -16,0 -57,-9 -92,-19 z"
         id="path49" />
      <path
         d="m 1722,1957 c -12,-13 -42,-52 -65,-88 -46,-68 -47,-68 -132,-58 l -29,4 -14,-85 -14,-85 136,-132 c 76,-73 144,-133 152,-133 8,0 35,20 61,44 l 47,45 1,93 c 1,70 7,107 23,148 12,30 22,60 22,67 0,12 -114,156 -147,185 -19,17 -20,17 -41,-5 z"
         id="path51" />
      <path
         d="m 1964,1065 c -4,-8 17,-50 47,-97 l 52,-82 7,-103 c 3,-57 3,-125 -1,-151 -3,-26 -12,-83 -18,-127 -19,-130 -20,-132 -59,-156 -131,-78 -155,-89 -241,-103 -49,-8 -101,-20 -117,-28 -16,-8 -56,-20 -89,-27 -33,-7 -64,-14 -70,-16 -5,-1 73,0 175,3 163,4 187,3 199,-12 18,-22 30,-20 53,9 25,32 68,33 134,3 41,-18 73,-22 197,-26 129,-4 150,-2 167,13 17,15 26,16 107,4 48,-7 158,-14 243,-15 220,-3 450,-16 456,-26 3,-4 14,-8 25,-8 11,0 23,-8 26,-18 4,-9 11,-20 17,-24 16,-11 246,-10 246,1 0,12 -62,21 -143,21 -56,0 -76,5 -121,30 -49,28 -68,32 -218,45 -273,24 -345,33 -365,43 -10,5 -41,12 -70,15 -80,9 -134,43 -192,119 -16,22 -40,122 -41,170 0,50 -17,57 -47,19 -13,-17 -34,-31 -45,-31 -34,0 -145,68 -152,93 -3,13 -10,63 -16,112 -6,50 -15,122 -20,160 -5,39 -13,96 -16,127 -7,56 -8,58 -43,68 -49,13 -61,13 -67,-5 z"
         id="path53" />
      <path
         d="m 3650,830 c -14,-4 -43,-9 -65,-10 -22,-1 -56,-7 -75,-15 -34,-12 -34,-13 -10,-18 14,-3 57,-9 97,-12 65,-5 73,-4 82,14 13,23 14,51 4,50 -5,-1 -19,-5 -33,-9 z"
         id="path55" />
      <path
         d="m 3744,823 c 7,-12 195,-108 200,-102 2,2 6,22 8,44 l 3,40 -75,12 c -88,14 -143,16 -136,6 z"
         id="path57" />
      <path
         d="m 3580,627 c -120,-60 -125,-63 -123,-92 1,-16 4,-66 7,-110 3,-56 8,-79 17,-77 7,2 53,25 102,53 49,27 95,49 102,49 6,0 44,-25 84,-56 40,-30 77,-54 83,-52 5,2 24,49 43,105 30,94 31,103 16,116 -21,18 -196,127 -201,126 -3,0 -61,-28 -130,-62 z"
         id="path59" />
      <path
         d="m 4077,452 c -2,-42 -3,-78 -2,-80 2,-2 13,2 25,8 17,9 21,18 16,38 -4,15 -9,44 -13,65 -10,63 -20,51 -26,-31 z"
         id="path61" />
      <path
         d="m 848,103 c 6,-2 18,-2 25,0 6,3 1,5 -13,5 -14,0 -19,-2 -12,-5 z"
         id="path63" />
      <path
         d="m 3570,80 c 20,-13 73,-13 65,0 -3,6 -23,10 -43,10 -28,0 -33,-3 -22,-10 z"
         id="path65" />
      <path
         d="m 3695,60 c 28,-12 37,-12 30,0 -3,6 -16,10 -28,9 -21,0 -21,-1 -2,-9 z"
         id="path67" />
    </g>
    <g
       id="g6842"
       transform="matrix(0.93963913,0,0,0.93963913,-46.188719,3.7630297)">
      <text
         xml:space="preserve"
         style="font-style:normal;font-variant:normal;font-weight:bold;font-stretch:normal;font-size:44.2248px;line-height:1.25;font-family:Verdana;-inkscape-font-specification:'Verdana, Bold';font-variant-ligatures:normal;font-variant-caps:normal;font-variant-numeric:normal;font-variant-east-asian:normal;stroke-width:1.38202"
         x="158.77217"
         y="64.946175"
         id="text1105"
         transform="scale(1.1221046,0.89118253)"><tspan
           sodipodi:role="line"
           id="tspan1103"
           style="font-style:normal;font-variant:normal;font-weight:bold;font-stretch:normal;font-size:44.2248px;font-family:Verdana;-inkscape-font-specification:'Verdana, Bold';font-variant-ligatures:normal;font-variant-caps:normal;font-variant-numeric:normal;font-variant-east-asian:normal;stroke-width:1.38202"
           x="158.77217"
           y="64.946175">KB</tspan></text>
      <g
         id="g4988"
         transform="matrix(5.8612021,0,0,4.6550037,-662.3231,-454.9591)">
        <text
           xml:space="preserve"
           style="font-style:normal;font-variant:normal;font-weight:bold;font-stretch:normal;font-size:8.46667px;line-height:1.25;font-family:Verdana;-inkscape-font-specification:'Verdana, Bold';font-variant-ligatures:normal;font-variant-caps:normal;font-variant-numeric:normal;font-variant-east-asian:normal;stroke-width:0.264583"
           x="134.25987"
           y="110.16919"
           id="text1105-8"><tspan
             sodipodi:role="line"
             id="tspan1103-7"
             style="font-style:normal;font-variant:normal;font-weight:bold;font-stretch:normal;font-size:8.46667px;font-family:Verdana;-inkscape-font-specification:'Verdana, Bold';font-variant-ligatures:normal;font-variant-caps:normal;font-variant-numeric:normal;font-variant-east-asian:normal;stroke-width:0.264583"
             x="134.25987"
             y="110.16919">V</tspan></text>
        <text
           xml:space="preserve"
           style="font-style:normal;font-variant:normal;font-weight:bold;font-stretch:normal;font-size:8.46667px;line-height:1.25;font-family:Verdana;-inkscape-font-specification:'Verdana, Bold';font-variant-ligatures:normal;font-variant-caps:normal;font-variant-numeric:normal;font-variant-east-asian:normal;stroke-width:0.264583"
           x="136.90567"
           y="110.16919"
           id="text4902"><tspan
             sodipodi:role="line"
             id="tspan4900"
             style="font-style:normal;font-variant:normal;font-weight:bold;font-stretch:normal;font-size:8.46667px;font-family:Verdana;-inkscape-font-specification:'Verdana, Bold';font-variant-ligatures:normal;font-variant-caps:normal;font-variant-numeric:normal;font-variant-east-asian:normal;stroke-width:0.264583"
             x="136.90567"
             y="110.16919">V</tspan></text>
      </g>
    </g>
    <text
       xml:space="preserve"
       style="font-style:normal;font-variant:normal;font-weight:bold;font-stretch:normal;font-size:8.31537px;line-height:1.25;font-family:sans-serif;-inkscape-font-specification:'sans-serif, Bold';font-variant-ligatures:normal;font-variant-caps:normal;font-variant-numeric:normal;font-variant-east-asian:normal;stroke-width:0.259855"
       x="71.169884"
       y="67.566765"
       id="text7726"><tspan
         sodipodi:role="line"
         id="tspan7724"
         style="font-style:normal;font-variant:normal;font-weight:bold;font-stretch:normal;font-size:8.31537px;font-family:sans-serif;-inkscape-font-specification:'sans-serif, Bold';font-variant-ligatures:normal;font-variant-caps:normal;font-variant-numeric:normal;font-variant-east-asian:normal;stroke-width:0.259855"
         x="71.169884"
         y="67.566765">World Kyokushin Budokai</tspan></text>
  </g>
  <g
     inkscape:label="Layer 1 copy"
     inkscape:groupmode="layer"
     id="g8074"
     style="display:inline">
    <path
       d="m 36.321946,16.673324 c -1.486036,0.1636 -3.776441,0.654401 -5.167043,1.104302 -0.886169,0.299934 -3.20384,1.186102 -3.28564,1.281536 -0.0409,0.0409 -0.558968,0.299934 -1.145202,0.586234 -2.017738,0.981602 -4.512643,2.767573 -6.475846,4.648976 -3.531041,3.40834 -6.148646,7.893716 -7.293848,12.515425 -0.572601,2.317671 -0.927069,5.31701 -0.640768,5.48061 0.0818,0.05453 2.767572,0.09543 5.957778,0.0818 4.239975,0 5.862345,0.02727 5.998679,0.149967 0.149967,0.1227 0.190867,0.627134 0.190867,2.249504 v 2.085904 l 0.409001,0.218134 c 0.695301,0.368101 0.954335,0.272667 1.608736,-0.586235 l 0.231767,-0.313567 1.349703,0.286301 c 0.736201,0.149967 1.363336,0.272667 1.390603,0.272667 0.02727,0 0.01363,-0.163601 -0.02727,-0.381734 -0.0409,-0.204501 0.02727,-0.927069 0.1636,-1.595103 0.395368,-2.140438 0.409001,-2.017738 -0.136333,-2.835739 -0.272668,-0.409001 -0.586235,-0.831635 -0.695302,-0.913435 -0.531701,-0.436268 -0.2863,-0.599868 2.631239,-1.785971 l 1.82687,-0.736201 0.272667,0.340834 c 0.218134,0.272667 0.286301,0.286301 0.395368,0.1227 0.06817,-0.09543 0.1227,-0.231767 0.1227,-0.2863 0,-0.231767 1.649636,-1.731437 2.317671,-2.113171 2.072271,-1.158836 4.894376,-1.186102 6.953014,-0.05453 0.736201,0.409001 2.304037,1.963204 2.617605,2.617606 0.749835,1.554203 0.913435,2.208604 0.927068,3.749174 0,0.599867 0.02727,1.131568 0.06817,1.172469 0.0409,0.0409 0.422634,-0.01363 0.858902,-0.109067 3.967307,-0.954336 4.744409,-1.049769 7.743748,-1.036136 1.58147,0 3.381073,0.0818 4.008208,0.149967 1.431503,0.190867 3.830974,0.190867 4.485375,0.02727 1.840504,-0.477168 2.194971,-0.558968 2.631239,-0.558968 0.654401,0 0.967968,-0.313567 0.872535,-0.872535 -0.0409,-0.231767 -0.109067,-0.858902 -0.149967,-1.376969 -0.177234,-1.82687 -1.008869,-5.15341 -1.649637,-6.57128 -0.177233,-0.381734 -0.3272,-0.736201 -0.3272,-0.777101 0,-0.136334 -0.872535,-1.922304 -1.281536,-2.603972 -0.518068,-0.899802 -1.74507,-2.713039 -2.344938,-3.476507 C 61.175561,26.121242 58.844257,23.721771 58.135322,23.14917 54.631548,20.245264 51.250475,18.500194 46.8878,17.341359 43.847561,16.53699 39.880253,16.277957 36.321946,16.673324 Z m 7.811915,1.567836 c 3.04024,0.518068 5.276111,1.240636 7.798282,2.535805 2.876639,1.472403 4.744409,2.849373 7.048447,5.235211 3.217473,3.312906 5.426078,7.375647 6.462213,11.88829 0.2045,0.886168 0.2045,1.077035 0.05453,1.267902 -0.2045,0.2454 -0.109066,0.2454 -2.522171,-0.0818 -5.19431,-0.708935 -9.775119,-2.685772 -13.824227,-5.985045 -1.363336,-1.104302 -3.340173,-3.08114 -4.035475,-4.021841 -0.231767,-0.299934 -0.477167,-0.627135 -0.572601,-0.708935 -0.231767,-0.259034 -1.404236,-2.045004 -1.404236,-2.154071 0,-0.0409 -0.190867,-0.368101 -0.422634,-0.695301 -0.831635,-1.227003 -2.304038,-4.70351 -2.644872,-6.284979 -0.136334,-0.668035 -0.313567,-0.668035 -0.477168,-0.01363 -0.531701,2.058638 -2.440371,6.421313 -2.890272,6.625813 -0.06817,0.02727 -0.109067,0.122701 -0.109067,0.190867 0,0.136334 -0.777101,1.445136 -0.954335,1.608737 -0.0409,0.0409 -0.409001,0.531701 -0.831635,1.090669 -0.722568,0.967968 -2.644872,3.012972 -3.667374,3.885507 -2.222237,1.908671 -4.948909,3.585574 -7.511981,4.608076 -2.672139,1.063402 -4.090008,1.445136 -7.062081,1.881404 -2.208604,0.3272 -2.467638,0.2863 -2.467638,-0.340834 0,-0.763469 0.886169,-3.899141 1.45877,-5.126144 0.558967,-1.213369 1.090669,-2.290404 1.322436,-2.658505 2.154071,-3.49014 4.444475,-6.039578 7.348381,-8.098216 1.431502,-1.036135 3.462873,-2.208604 4.499008,-2.617605 0.395368,-0.149967 0.763469,-0.327201 0.845269,-0.381734 0.1636,-0.136334 2.822105,-0.995235 3.953674,-1.281536 0.858902,-0.218134 3.353807,-0.599868 4.499009,-0.695301 1.390603,-0.109067 4.580809,0.06817 6.107745,0.3272 z"
       id="path8026"
       style="fill:#f3221d;fill-opacity:1;stroke:none;stroke-width:0.0136334" />
    <path
       d="m 31.959271,39.522835 c -0.818002,0.409001 -1.922304,0.899802 -2.413105,1.090669 -0.340834,0.1227 -0.422634,0.463534 -0.136334,0.572601 0.0818,0.02727 0.395368,0.395368 0.681668,0.804369 l 0.504435,0.749834 -0.190867,0.940702 c -0.109067,0.518068 -0.231767,1.322436 -0.286301,1.78597 -0.09543,0.831635 -0.09543,0.845269 0.327201,1.049769 0.558968,0.299934 0.627134,0.286301 0.954335,-0.231767 0.149967,-0.231767 0.381734,-0.558968 0.518068,-0.708935 0.422634,-0.477167 2.085904,-2.999339 2.085904,-3.190206 0,-0.2045 -1.090669,-3.053873 -1.213369,-3.16294 -0.0409,-0.0409 -0.422634,0.09543 -0.831635,0.299934 z"
       id="path8028"
       style="fill:#000000;stroke:none;stroke-width:0.0136334" />
    <path
       d="m 12.899834,43.135676 c -0.286301,0.2045 -0.149967,0.627134 0.2454,0.749835 0.190867,0.05453 1.036135,0.313567 1.881404,0.586234 0.845268,0.272667 1.62237,0.490801 1.731436,0.490801 0.122701,0 0.313568,0.05453 0.449901,0.1227 0.122701,0.06817 0.381734,0.177234 0.572601,0.259034 0.299934,0.109067 0.409001,0.340834 0.736202,1.54057 0.218134,0.777101 0.572601,1.963204 0.777101,2.644872 0.218134,0.668034 0.613502,1.976837 0.899802,2.890272 0.586235,1.881404 0.395368,1.690537 2.494905,2.440371 0.708935,0.259034 1.390603,0.572601 1.49967,0.722568 0.177233,0.204501 0.2045,0.627135 0.190867,2.317672 l -0.01363,2.07227 0.518068,0.818002 c 1.049769,1.608736 1.145202,2.181338 0.613501,3.558307 -0.395367,1.022502 -0.531701,2.276771 -0.340834,3.040239 0.0818,0.299934 0.204501,0.804368 0.272667,1.131569 0.0818,0.313567 0.190867,0.572601 0.231767,0.572601 0.05453,-0.01363 0.449901,-0.545334 0.899802,-1.199735 0.749835,-1.117936 2.590339,-3.790075 3.844608,-5.603311 0.299934,-0.436268 0.777101,-1.104303 1.049768,-1.486037 0.545335,-0.722568 0.599868,-0.913435 0.340834,-1.036135 -0.09543,-0.0409 -0.422634,-0.231767 -0.722568,-0.422634 -0.299934,-0.177234 -0.681668,-0.395368 -0.845268,-0.463534 -0.1636,-0.0818 -0.599868,-0.340834 -0.954335,-0.586235 -0.354467,-0.259034 -0.954335,-0.627134 -1.308803,-0.845268 -0.436267,-0.245401 -0.736201,-0.531701 -0.845268,-0.818002 -0.149967,-0.354467 -0.586234,-0.695301 -2.004104,-1.58147 -0.995235,-0.627134 -1.854137,-1.213369 -1.90867,-1.295169 -0.190867,-0.272667 -0.01363,-0.395367 0.995235,-0.668034 1.376969,-0.395368 2.563072,-1.036136 3.340173,-1.813237 0.668035,-0.695302 1.349703,-1.963204 1.472403,-2.767572 0.02727,-0.259034 0.109067,-0.640768 0.149967,-0.845269 0.0818,-0.3272 0.05453,-0.381734 -0.286301,-0.449901 -0.218133,-0.05453 -0.695301,-0.190867 -1.063402,-0.299934 l -0.654401,-0.2045 -0.518068,0.558968 c -0.531701,0.572601 -0.599867,0.599868 -1.295169,0.558968 -0.708935,-0.0409 -1.281536,-0.299934 -1.417869,-0.668035 -0.0818,-0.190867 -0.1227,-1.199736 -0.109067,-2.235871 l 0.02727,-1.881404 -5.371544,-0.02727 c -3.626474,-0.01363 -5.439711,0.01363 -5.576044,0.1227 z"
       id="path8030"
       style="fill:#000000;stroke:none;stroke-width:0.0136334" />
    <path
       d="m 65.51097,43.326543 c -2.140438,0.613501 -4.062742,0.627134 -9.488819,0.1227 -1.690536,-0.1636 -3.312906,0 -6.339512,0.627135 -0.940702,0.2045 -1.908671,0.381734 -2.167704,0.422634 -0.245401,0.02727 -0.504435,0.0818 -0.558968,0.1227 -0.06817,0.0409 -0.722568,0.06817 -1.45877,0.0818 -0.995235,0 -1.554203,-0.06817 -2.222237,-0.2863 -1.58147,-0.518068 -2.072271,-0.518068 -3.067506,0.01363 -0.490801,0.2454 -0.913436,0.531701 -0.940702,0.613501 -0.0409,0.09543 0.0409,0.286301 0.1636,0.436268 0.1227,0.149967 0.299934,0.395367 0.395368,0.531701 0.136333,0.231767 0.177233,0.218133 0.545334,-0.218134 0.313567,-0.354467 0.463534,-0.436268 0.695301,-0.368101 0.354468,0.1227 0.381734,0.422634 0.09543,1.37697 -0.409001,1.363336 -0.818002,1.66327 -1.213369,0.913435 -0.436268,-0.790735 -0.395368,-0.790735 -1.363336,0.02727 -0.504435,0.422635 -0.967969,0.736202 -1.022502,0.695302 -0.06817,-0.02727 -0.163601,-0.381734 -0.204501,-0.777102 -0.136333,-1.036135 -0.299934,-1.213369 -0.409,-0.436267 -0.149967,1.145202 -0.109067,1.554203 0.1636,1.554203 0.368101,0 0.572601,0.272667 0.572601,0.777101 0,0.558968 -0.259034,0.695302 -0.899802,0.463535 -0.259034,-0.09543 -0.518067,-0.136334 -0.572601,-0.09543 -0.05453,0.02727 -0.0818,0.354467 -0.0409,0.722568 0.109067,0.845268 0.327201,0.886169 1.227002,0.177234 l 0.708935,-0.558968 1.595103,0.545334 c 2.481272,0.845269 2.535805,0.858902 2.781206,0.981602 0.136333,0.06817 0.340834,0.122701 0.449901,0.122701 0.1227,0 0.2045,0.1227 0.2045,0.299934 0,0.518067 -0.272667,1.336069 -0.436268,1.336069 -0.09543,0 -0.845268,-0.218134 -1.663269,-0.463534 -2.944806,-0.927069 -3.803708,-1.172469 -4.049108,-1.172469 -0.136334,0 -0.736202,0.490801 -1.349703,1.090668 l -1.104302,1.077036 0.0409,1.131569 0.0409,1.131569 0.749835,0.0818 c 1.895037,0.218134 2.931172,0.409001 3.122039,0.586234 0.231767,0.245401 0.449901,1.513303 0.831635,4.78531 0.231767,2.004104 0.259034,2.07227 0.749835,2.372204 l 0.463534,0.272667 0.299934,-0.3681 c 0.149967,-0.204501 0.627135,-0.940702 1.036136,-1.636003 0.804368,-1.37697 1.227002,-1.66327 1.077035,-0.722569 -0.05453,0.395368 -0.02727,0.572602 0.136334,0.708935 0.190867,0.149967 0.2454,0.136334 0.409,-0.0818 0.109067,-0.136334 0.190867,-0.327201 0.190867,-0.409001 0,-0.09543 0.122701,-0.545334 0.286301,-1.008868 l 0.272667,-0.858902 -0.272667,-0.204501 c -0.272667,-0.190867 -0.272667,-0.2045 0.313567,-1.308802 0.327201,-0.613501 0.886169,-1.636003 1.240636,-2.276771 0.368101,-0.640768 0.804368,-1.445136 0.981602,-1.813237 0.177234,-0.354467 0.395367,-0.640768 0.490801,-0.640768 0.09543,0 0.395367,0.286301 0.681668,0.640768 1.58147,2.058637 2.235871,2.835739 2.372205,2.835739 0.0818,0 0.558967,-0.381734 1.063402,-0.858902 0.518067,-0.463534 1.036135,-0.845268 1.158835,-0.845268 0.204501,0 0.545335,0.504434 0.545335,0.818001 0,0.136334 0.504434,1.29517 0.981602,2.290405 0.272667,0.558968 2.263137,2.508538 2.644871,2.590338 0.204501,0.05453 1.486037,-1.267902 1.486037,-1.513303 0,-0.0818 -0.395368,-0.1636 -0.886169,-0.190867 -1.813237,-0.109067 -2.999339,-0.477167 -2.999339,-0.927068 0,-0.109067 0.313567,-0.790735 0.695301,-1.49967 l 0.695302,-1.308802 -0.163601,-1.281536 c -0.09543,-0.708935 -0.136333,-1.37697 -0.09543,-1.486036 0.109067,-0.259034 0.463534,-0.136334 0.572601,0.177233 0.0409,0.136334 0.286301,0.477168 0.531701,0.763468 l 0.477168,0.531701 0.845268,-0.818001 c 1.254269,-1.199736 4.021841,-3.844608 4.798943,-4.594442 0.790735,-0.777102 1.104302,-0.790735 1.158835,-0.05453 0.02727,0.272667 0.0818,0.504434 0.136334,0.504434 0.2045,0 2.794839,-2.045004 3.190206,-2.508538 0.204501,-0.2454 0.245401,-0.586234 0.245401,-2.167704 v -1.86777 l -0.368101,0.01363 c -0.218134,0 -0.777102,0.1227 -1.254269,0.259034 z"
       id="path8032"
       style="fill:#000000;stroke:none;stroke-width:0.0136334" />
    <path
       d="m 33.349874,45.54878 c -0.163601,0.177234 -0.572602,0.708935 -0.886169,1.199736 -0.627134,0.927069 -0.640768,0.927069 -1.799603,0.790735 l -0.395368,-0.05453 -0.190867,1.158835 -0.190867,1.158836 1.854137,1.799603 c 1.036135,0.995236 1.963204,1.813237 2.072271,1.813237 0.109067,0 0.477167,-0.272667 0.831635,-0.599868 l 0.640768,-0.613501 0.01363,-1.267902 c 0.01363,-0.954336 0.09543,-1.45877 0.313567,-2.017738 0.163601,-0.409 0.299934,-0.818001 0.299934,-0.913435 0,-0.1636 -1.554203,-2.126804 -2.004104,-2.522171 -0.259034,-0.231767 -0.272667,-0.231767 -0.558967,0.06817 z"
       id="path8034"
       style="fill:#000000;stroke:none;stroke-width:0.0136334" />
    <path
       d="m 36.649147,57.709738 c -0.05453,0.109066 0.231767,0.681668 0.640768,1.322436 l 0.708934,1.117935 0.09543,1.404236 c 0.0409,0.777102 0.0409,1.70417 -0.01363,2.058637 -0.0409,0.354468 -0.1636,1.131569 -0.2454,1.731437 -0.259034,1.772337 -0.272667,1.799604 -0.804368,2.126804 -1.78597,1.063402 -2.113171,1.213369 -3.28564,1.404236 -0.668035,0.109067 -1.376969,0.272668 -1.595103,0.381735 -0.218134,0.109066 -0.763468,0.272667 -1.213369,0.3681 -0.449901,0.09543 -0.872535,0.190867 -0.954335,0.218134 -0.06817,0.01363 0.995235,0 2.385838,-0.0409 2.222237,-0.05453 2.549438,-0.0409 2.713038,0.1636 0.245401,0.299934 0.409001,0.272667 0.722568,-0.1227 0.340834,-0.436268 0.927069,-0.449901 1.826871,-0.0409 0.558967,0.2454 0.995235,0.299934 2.685771,0.354467 1.758704,0.05453 2.045004,0.02727 2.276772,-0.177233 0.231767,-0.204501 0.354467,-0.218134 1.458769,-0.05453 0.654401,0.09543 2.154071,0.190867 3.312907,0.204501 2.999339,0.0409 6.135012,0.218133 6.216812,0.354467 0.0409,0.05453 0.190867,0.109067 0.340834,0.109067 0.149967,0 0.313567,0.109067 0.354467,0.2454 0.05453,0.122701 0.149967,0.272667 0.231767,0.327201 0.218134,0.149967 3.353807,0.136334 3.353807,-0.01363 0,-0.163601 -0.845269,-0.286301 -1.949571,-0.286301 -0.763468,0 -1.036135,-0.06817 -1.649636,-0.409001 C 53.595413,70.075202 53.336379,70.020669 51.291375,69.843435 47.569468,69.516234 46.587866,69.393534 46.315199,69.257201 46.178865,69.189031 45.756231,69.0936 45.360864,69.0527 44.270195,68.93 43.533993,68.466466 42.743259,67.43033 c -0.218134,-0.299934 -0.545335,-1.66327 -0.558968,-2.317671 0,-0.681668 -0.231767,-0.777101 -0.640768,-0.259034 -0.177234,0.231767 -0.463534,0.422634 -0.613501,0.422634 -0.463535,0 -1.976838,-0.927068 -2.072271,-1.267902 -0.0409,-0.177234 -0.136334,-0.858902 -0.218134,-1.526936 -0.0818,-0.681668 -0.2045,-1.66327 -0.272667,-2.181338 -0.06817,-0.531701 -0.177234,-1.308803 -0.218134,-1.731437 -0.09543,-0.763468 -0.109067,-0.790735 -0.586234,-0.927068 -0.668035,-0.177234 -0.831635,-0.177234 -0.913435,0.06817 z"
       id="path8036"
       style="fill:#f3221d;fill-opacity:1;stroke:none;stroke-width:0.0136334" />
    <path
       d="m 59.634992,60.913577 c -0.190867,0.05453 -0.586235,0.1227 -0.886169,0.136334 -0.299934,0.01363 -0.763468,0.09543 -1.022502,0.2045 -0.463534,0.163601 -0.463534,0.177234 -0.136333,0.245401 0.190867,0.0409 0.777101,0.1227 1.322436,0.1636 0.886168,0.06817 0.995235,0.05453 1.117935,-0.190867 0.177234,-0.313567 0.190867,-0.695301 0.05453,-0.681668 -0.06817,0.01363 -0.259033,0.06817 -0.4499,0.1227 z"
       id="path8038"
       style="fill:#000000;stroke:none;stroke-width:0.0136334" />
    <path
       d="m 60.916527,61.009011 c 0.09543,0.1636 2.658506,1.472403 2.726672,1.390602 0.02727,-0.02727 0.0818,-0.299933 0.109067,-0.599867 l 0.0409,-0.545335 -1.022502,-0.1636 c -1.199735,-0.190867 -1.94957,-0.218134 -1.854137,-0.0818 z"
       id="path8040"
       style="fill:#000000;stroke:none;stroke-width:0.0136334" />
    <path
       d="m 58.680656,63.681149 c -1.636003,0.818002 -1.70417,0.858902 -1.676903,1.254269 0.01363,0.218134 0.05453,0.899802 0.09543,1.49967 0.0409,0.763468 0.109067,1.077035 0.231767,1.049769 0.09543,-0.02727 0.722568,-0.340834 1.390602,-0.722568 0.668035,-0.368101 1.29517,-0.668035 1.390603,-0.668035 0.0818,0 0.599868,0.340834 1.145202,0.763468 0.545335,0.409001 1.049769,0.736202 1.131569,0.708935 0.06817,-0.02727 0.327201,-0.668035 0.586235,-1.431503 0.409001,-1.281536 0.422634,-1.404236 0.218134,-1.58147 -0.286301,-0.2454 -2.672139,-1.731436 -2.740306,-1.717803 -0.0409,0 -0.831635,0.381734 -1.772337,0.845268 z"
       id="path8042"
       style="fill:#000000;stroke:none;stroke-width:0.0136334" />
    <path
       d="m 65.456436,66.066987 c -0.02727,0.572601 -0.0409,1.063402 -0.02727,1.090669 0.02727,0.02727 0.177233,-0.02727 0.340834,-0.109067 0.231767,-0.1227 0.2863,-0.2454 0.218133,-0.518067 -0.05453,-0.204501 -0.1227,-0.599868 -0.177233,-0.886169 -0.136334,-0.858902 -0.272668,-0.695301 -0.354468,0.422634 z"
       id="path8044"
       style="fill:#000000;stroke:none;stroke-width:0.0136334" />
    <path
       d="m 21.434317,70.82503 c 0.0818,0.02727 0.2454,0.02727 0.340834,0 0.0818,-0.0409 0.01363,-0.06817 -0.177234,-0.06817 -0.190867,0 -0.259034,0.02727 -0.1636,0.06817 z"
       id="path8046"
       style="fill:#000000;stroke:none;stroke-width:0.0136334" />
    <path
       d="m 58.544323,71.138597 c 0.272667,0.177234 0.995235,0.177234 0.886168,0 -0.0409,-0.0818 -0.313567,-0.136333 -0.586234,-0.136333 -0.381734,0 -0.449901,0.0409 -0.299934,0.136333 z"
       id="path8048"
       style="fill:#000000;stroke:none;stroke-width:0.0136334" />
    <path
       d="m 60.248493,71.411264 c 0.381734,0.163601 0.504434,0.163601 0.409001,0 -0.0409,-0.0818 -0.218134,-0.136333 -0.381734,-0.1227 -0.286301,0 -0.286301,0.01363 -0.02727,0.1227 z"
       id="path8050"
       style="fill:#000000;stroke:none;stroke-width:0.0136334" />
    <g
       id="g8068"
       transform="matrix(0.93963913,0,0,0.93963913,-46.188719,3.7630297)">
      <text
         xml:space="preserve"
         style="font-style:normal;font-variant:normal;font-weight:bold;font-stretch:normal;font-size:44.2248px;line-height:1.25;font-family:Verdana;-inkscape-font-specification:'Verdana, Bold';font-variant-ligatures:normal;font-variant-caps:normal;font-variant-numeric:normal;font-variant-east-asian:normal;stroke-width:1.38202"
         x="158.77217"
         y="64.946175"
         id="text8056"
         transform="scale(1.1221046,0.89118253)"><tspan
           sodipodi:role="line"
           id="tspan8054"
           style="font-style:normal;font-variant:normal;font-weight:bold;font-stretch:normal;font-size:44.2248px;font-family:Verdana;-inkscape-font-specification:'Verdana, Bold';font-variant-ligatures:normal;font-variant-caps:normal;font-variant-numeric:normal;font-variant-east-asian:normal;stroke-width:1.38202"
           x="158.77217"
           y="64.946175">KB</tspan></text>
      <g
         id="g8066"
         transform="matrix(5.8612021,0,0,4.6550037,-662.3231,-454.9591)">
        <text
           xml:space="preserve"
           style="font-style:normal;font-variant:normal;font-weight:bold;font-stretch:normal;font-size:8.46667px;line-height:1.25;font-family:Verdana;-inkscape-font-specification:'Verdana, Bold';font-variant-ligatures:normal;font-variant-caps:normal;font-variant-numeric:normal;font-variant-east-asian:normal;stroke-width:0.264583"
           x="134.25987"
           y="110.16919"
           id="text8060"><tspan
             sodipodi:role="line"
             id="tspan8058"
             style="font-style:normal;font-variant:normal;font-weight:bold;font-stretch:normal;font-size:8.46667px;font-family:Verdana;-inkscape-font-specification:'Verdana, Bold';font-variant-ligatures:normal;font-variant-caps:normal;font-variant-numeric:normal;font-variant-east-asian:normal;stroke-width:0.264583"
             x="134.25987"
             y="110.16919">V</tspan></text>
        <text
           xml:space="preserve"
           style="font-style:normal;font-variant:normal;font-weight:bold;font-stretch:normal;font-size:8.46667px;line-height:1.25;font-family:Verdana;-inkscape-font-specification:'Verdana, Bold';font-variant-ligatures:normal;font-variant-caps:normal;font-variant-numeric:normal;font-variant-east-asian:normal;stroke-width:0.264583"
           x="136.90567"
           y="110.16919"
           id="text8064"><tspan
             sodipodi:role="line"
             id="tspan8062"
             style="font-style:normal;font-variant:normal;font-weight:bold;font-stretch:normal;font-size:8.46667px;font-family:Verdana;-inkscape-font-specification:'Verdana, Bold';font-variant-ligatures:normal;font-variant-caps:normal;font-variant-numeric:normal;font-variant-east-asian:normal;stroke-width:0.264583"
             x="136.90567"
             y="110.16919">V</tspan></text>
      </g>
    </g>
    <text
       xml:space="preserve"
       style="font-style:normal;font-variant:normal;font-weight:bold;font-stretch:normal;font-size:8.31537px;line-height:1.25;font-family:sans-serif;-inkscape-font-specification:'sans-serif, Bold';font-variant-ligatures:normal;font-variant-caps:normal;font-variant-numeric:normal;font-variant-east-asian:normal;stroke-width:0.259855"
       x="71.169884"
       y="67.566765"
       id="text8072"><tspan
         sodipodi:role="line"
         id="tspan8070"
         style="font-style:normal;font-variant:normal;font-weight:bold;font-stretch:normal;font-size:8.31537px;font-family:sans-serif;-inkscape-font-specification:'sans-serif, Bold';font-variant-ligatures:normal;font-variant-caps:normal;font-variant-numeric:normal;font-variant-east-asian:normal;stroke-width:0.259855"
         x="71.169884"
         y="67.566765">World Kyokushin Budokai</tspan></text>
  </g>
</svg>
