<?xml version="1.0" encoding="UTF-8" standalone="no"?>
<!-- Created with Inkscape (http://www.inkscape.org/) -->

<svg
   width="178.28799mm"
   height="55.042919mm"
   viewBox="0 0 178.28799 55.042919"
   version="1.1"
   id="svg9127"
   inkscape:version="1.1 (c68e22c387, 2021-05-23)"
   sodipodi:docname="wkb-logo-new.svg"
   xmlns:inkscape="http://www.inkscape.org/namespaces/inkscape"
   xmlns:sodipodi="http://sodipodi.sourceforge.net/DTD/sodipodi-0.dtd"
   xmlns="http://www.w3.org/2000/svg"
   xmlns:svg="http://www.w3.org/2000/svg">
  <sodipodi:namedview
     id="namedview9129"
     pagecolor="#ffffff"
     bordercolor="#666666"
     borderopacity="1.0"
     inkscape:pageshadow="2"
     inkscape:pageopacity="0.0"
     inkscape:pagecheckerboard="0"
     inkscape:document-units="mm"
     showgrid="false"
     inkscape:zoom="0.46324355"
     inkscape:cx="336.75591"
     inkscape:cy="-59.364022"
     inkscape:window-width="1366"
     inkscape:window-height="705"
     inkscape:window-x="-8"
     inkscape:window-y="-8"
     inkscape:window-maximized="1"
     inkscape:current-layer="layer1" />
  <defs
     id="defs9124" />
  <g
     inkscape:label="Layer 1"
     inkscape:groupmode="layer"
     id="layer1"
     transform="translate(-15.377153,-43.301618)">
    <path
       d="m 39.486768,43.483895 c -1.486036,0.1636 -3.776441,0.654401 -5.167043,1.104302 -0.886169,0.299934 -3.20384,1.186102 -3.28564,1.281536 -0.0409,0.0409 -0.558968,0.299934 -1.145202,0.586234 -2.017738,0.981602 -4.512643,2.767573 -6.475846,4.648976 -3.531041,3.40834 -6.148646,7.893716 -7.293848,12.515425 -0.572601,2.317671 -0.927069,5.31701 -0.640768,5.48061 0.0818,0.05453 2.767572,0.09543 5.957778,0.0818 4.239975,0 5.862345,0.02727 5.998679,0.149967 0.149967,0.1227 0.190867,0.627134 0.190867,2.249504 v 2.085904 l 0.409001,0.218134 c 0.695301,0.368101 0.954335,0.272667 1.608736,-0.586235 l 0.231767,-0.313567 1.349703,0.286301 c 0.736201,0.149967 1.363336,0.272667 1.390603,0.272667 0.02727,0 0.01363,-0.163601 -0.02727,-0.381734 -0.0409,-0.204501 0.02727,-0.927069 0.1636,-1.595103 0.395368,-2.140438 0.409001,-2.017738 -0.136333,-2.835739 -0.272668,-0.409001 -0.586235,-0.831635 -0.695302,-0.913435 -0.531701,-0.436268 -0.2863,-0.599868 2.631239,-1.785971 l 1.82687,-0.736201 0.272667,0.340834 c 0.218134,0.272667 0.286301,0.286301 0.395368,0.1227 0.06817,-0.09543 0.1227,-0.231767 0.1227,-0.2863 0,-0.231767 1.649636,-1.731437 2.317671,-2.113171 2.072271,-1.158836 4.894376,-1.186102 6.953014,-0.05453 0.736201,0.409001 2.304037,1.963204 2.617605,2.617606 0.749835,1.554203 0.913435,2.208604 0.927068,3.749174 0,0.599867 0.02727,1.131568 0.06817,1.172469 0.0409,0.0409 0.422634,-0.01363 0.858902,-0.109067 3.967307,-0.954336 4.744409,-1.049769 7.743748,-1.036136 1.58147,0 3.381073,0.0818 4.008208,0.149967 1.431503,0.190867 3.830974,0.190867 4.485375,0.02727 1.840504,-0.477168 2.194971,-0.558968 2.631239,-0.558968 0.654401,0 0.967968,-0.313567 0.872535,-0.872535 -0.0409,-0.231767 -0.109067,-0.858902 -0.149967,-1.376969 -0.177234,-1.82687 -1.008869,-5.15341 -1.649637,-6.57128 -0.177233,-0.381734 -0.3272,-0.736201 -0.3272,-0.777101 0,-0.136334 -0.872535,-1.922304 -1.281536,-2.603972 -0.518068,-0.899802 -1.74507,-2.713039 -2.344938,-3.476507 C 64.340383,52.931813 62.009079,50.532342 61.300144,49.959741 57.79637,47.055835 54.415297,45.310765 50.052622,44.15193 47.012383,43.347561 43.045075,43.088528 39.486768,43.483895 Z m 7.811915,1.567836 c 3.04024,0.518068 5.276111,1.240636 7.798282,2.535805 2.876639,1.472403 4.744409,2.849373 7.048447,5.235211 3.217473,3.312906 5.426078,7.375647 6.462213,11.88829 0.2045,0.886168 0.2045,1.077035 0.05453,1.267902 -0.2045,0.2454 -0.109066,0.2454 -2.522171,-0.0818 -5.19431,-0.708935 -9.775119,-2.685772 -13.824227,-5.985045 -1.363336,-1.104302 -3.340173,-3.08114 -4.035475,-4.021841 -0.231767,-0.299934 -0.477167,-0.627135 -0.572601,-0.708935 -0.231767,-0.259034 -1.404236,-2.045004 -1.404236,-2.154071 0,-0.0409 -0.190867,-0.368101 -0.422634,-0.695301 -0.831635,-1.227003 -2.304038,-4.70351 -2.644872,-6.284979 -0.136334,-0.668035 -0.313567,-0.668035 -0.477168,-0.01363 -0.531701,2.058638 -2.440371,6.421313 -2.890272,6.625813 -0.06817,0.02727 -0.109067,0.122701 -0.109067,0.190867 0,0.136334 -0.777101,1.445136 -0.954335,1.608737 -0.0409,0.0409 -0.409001,0.531701 -0.831635,1.090669 -0.722568,0.967968 -2.644872,3.012972 -3.667374,3.885507 -2.222237,1.908671 -4.948909,3.585574 -7.511981,4.608076 -2.672139,1.063402 -4.090008,1.445136 -7.062081,1.881404 -2.208604,0.3272 -2.467638,0.2863 -2.467638,-0.340834 0,-0.763469 0.886169,-3.899141 1.45877,-5.126144 0.558967,-1.213369 1.090669,-2.290404 1.322436,-2.658505 2.154071,-3.49014 4.444475,-6.039578 7.348381,-8.098216 1.431502,-1.036135 3.462873,-2.208604 4.499008,-2.617605 0.395368,-0.149967 0.763469,-0.327201 0.845269,-0.381734 0.1636,-0.136334 2.822105,-0.995235 3.953674,-1.281536 0.858902,-0.218134 3.353807,-0.599868 4.499009,-0.695301 1.390603,-0.109067 4.580809,0.06817 6.107745,0.3272 z"
       id="path8026"
       style="display:inline;fill:#f3221d;fill-opacity:1;stroke:none;stroke-width:0.0136334" />
    <path
       d="m 35.124093,66.333406 c -0.818002,0.409001 -1.922304,0.899802 -2.413105,1.090669 -0.340834,0.1227 -0.422634,0.463534 -0.136334,0.572601 0.0818,0.02727 0.395368,0.395368 0.681668,0.804369 l 0.504435,0.749834 -0.190867,0.940702 c -0.109067,0.518068 -0.231767,1.322436 -0.286301,1.78597 -0.09543,0.831635 -0.09543,0.845269 0.327201,1.049769 0.558968,0.299934 0.627134,0.286301 0.954335,-0.231767 0.149967,-0.231767 0.381734,-0.558968 0.518068,-0.708935 0.422634,-0.477167 2.085904,-2.999339 2.085904,-3.190206 0,-0.2045 -1.090669,-3.053873 -1.213369,-3.16294 -0.0409,-0.0409 -0.422634,0.09543 -0.831635,0.299934 z"
       id="path8028"
       style="display:inline;fill:#ffffff;stroke:none;stroke-width:0.0136334" />
    <path
       d="m 16.064656,69.946247 c -0.286301,0.2045 -0.149967,0.627134 0.2454,0.749835 0.190867,0.05453 1.036135,0.313567 1.881404,0.586234 0.845268,0.272667 1.62237,0.490801 1.731436,0.490801 0.122701,0 0.313568,0.05453 0.449901,0.1227 0.122701,0.06817 0.381734,0.177234 0.572601,0.259034 0.299934,0.109067 0.409001,0.340834 0.736202,1.54057 0.218134,0.777101 0.572601,1.963204 0.777101,2.644872 0.218134,0.668034 0.613502,1.976837 0.899802,2.890272 0.586235,1.881404 0.395368,1.690537 2.494905,2.440371 0.708935,0.259034 1.390603,0.572601 1.49967,0.722568 0.177233,0.204501 0.2045,0.627135 0.190867,2.317672 l -0.01363,2.07227 0.518068,0.818002 c 1.049769,1.608736 1.145202,2.181338 0.613501,3.558307 -0.395367,1.022502 -0.531701,2.276771 -0.340834,3.040239 0.0818,0.299934 0.204501,0.804368 0.272667,1.131569 0.0818,0.313567 0.190867,0.572601 0.231767,0.572601 0.05453,-0.01363 0.449901,-0.545334 0.899802,-1.199735 0.749835,-1.117936 2.590339,-3.790075 3.844608,-5.603311 0.299934,-0.436268 0.777101,-1.104303 1.049768,-1.486037 0.545335,-0.722568 0.599868,-0.913435 0.340834,-1.036135 -0.09543,-0.0409 -0.422634,-0.231767 -0.722568,-0.422634 -0.299934,-0.177234 -0.681668,-0.395368 -0.845268,-0.463534 -0.1636,-0.0818 -0.599868,-0.340834 -0.954335,-0.586235 -0.354467,-0.259034 -0.954335,-0.627134 -1.308803,-0.845268 -0.436267,-0.245401 -0.736201,-0.531701 -0.845268,-0.818002 -0.149967,-0.354467 -0.586234,-0.695301 -2.004104,-1.58147 -0.995235,-0.627134 -1.854137,-1.213369 -1.90867,-1.295169 -0.190867,-0.272667 -0.01363,-0.395367 0.995235,-0.668034 1.376969,-0.395368 2.563072,-1.036136 3.340173,-1.813237 0.668035,-0.695302 1.349703,-1.963204 1.472403,-2.767572 0.02727,-0.259034 0.109067,-0.640768 0.149967,-0.845269 0.0818,-0.3272 0.05453,-0.381734 -0.286301,-0.449901 -0.218133,-0.05453 -0.695301,-0.190867 -1.063402,-0.299934 l -0.654401,-0.2045 -0.518068,0.558968 c -0.531701,0.572601 -0.599867,0.599868 -1.295169,0.558968 -0.708935,-0.0409 -1.281536,-0.299934 -1.417869,-0.668035 -0.0818,-0.190867 -0.1227,-1.199736 -0.109067,-2.235871 l 0.02727,-1.881404 -5.371544,-0.02727 c -3.626474,-0.01363 -5.439711,0.01363 -5.576044,0.1227 z"
       id="path8030"
       style="display:inline;fill:#ffffff;stroke:none;stroke-width:0.0136334" />
    <path
       d="m 68.675792,70.137114 c -2.140438,0.613501 -4.062742,0.627134 -9.488819,0.1227 -1.690536,-0.1636 -3.312906,0 -6.339512,0.627135 -0.940702,0.2045 -1.908671,0.381734 -2.167704,0.422634 -0.245401,0.02727 -0.504435,0.0818 -0.558968,0.1227 -0.06817,0.0409 -0.722568,0.06817 -1.45877,0.0818 -0.995235,0 -1.554203,-0.06817 -2.222237,-0.2863 -1.58147,-0.518068 -2.072271,-0.518068 -3.067506,0.01363 -0.490801,0.2454 -0.913436,0.531701 -0.940702,0.613501 -0.0409,0.09543 0.0409,0.286301 0.1636,0.436268 0.1227,0.149967 0.299934,0.395367 0.395368,0.531701 0.136333,0.231767 0.177233,0.218133 0.545334,-0.218134 0.313567,-0.354467 0.463534,-0.436268 0.695301,-0.368101 0.354468,0.1227 0.381734,0.422634 0.09543,1.37697 -0.409001,1.363336 -0.818002,1.66327 -1.213369,0.913435 -0.436268,-0.790735 -0.395368,-0.790735 -1.363336,0.02727 -0.504435,0.422635 -0.967969,0.736202 -1.022502,0.695302 -0.06817,-0.02727 -0.163601,-0.381734 -0.204501,-0.777102 -0.136333,-1.036135 -0.299934,-1.213369 -0.409,-0.436267 -0.149967,1.145202 -0.109067,1.554203 0.1636,1.554203 0.368101,0 0.572601,0.272667 0.572601,0.777101 0,0.558968 -0.259034,0.695302 -0.899802,0.463535 -0.259034,-0.09543 -0.518067,-0.136334 -0.572601,-0.09543 -0.05453,0.02727 -0.0818,0.354467 -0.0409,0.722568 0.109067,0.845268 0.327201,0.886169 1.227002,0.177234 l 0.708935,-0.558968 1.595103,0.545334 c 2.481272,0.845269 2.535805,0.858902 2.781206,0.981602 0.136333,0.06817 0.340834,0.122701 0.449901,0.122701 0.1227,0 0.2045,0.1227 0.2045,0.299934 0,0.518067 -0.272667,1.336069 -0.436268,1.336069 -0.09543,0 -0.845268,-0.218134 -1.663269,-0.463534 -2.944806,-0.927069 -3.803708,-1.172469 -4.049108,-1.172469 -0.136334,0 -0.736202,0.490801 -1.349703,1.090668 l -1.104302,1.077036 0.0409,1.131569 0.0409,1.131569 0.749835,0.0818 c 1.895037,0.218134 2.931172,0.409001 3.122039,0.586234 0.231767,0.245401 0.449901,1.513303 0.831635,4.78531 0.231767,2.004104 0.259034,2.07227 0.749835,2.372204 l 0.463534,0.272667 0.299934,-0.3681 c 0.149967,-0.204501 0.627135,-0.940702 1.036136,-1.636003 0.804368,-1.37697 1.227002,-1.66327 1.077035,-0.722569 -0.05453,0.395368 -0.02727,0.572602 0.136334,0.708935 0.190867,0.149967 0.2454,0.136334 0.409,-0.0818 0.109067,-0.136334 0.190867,-0.327201 0.190867,-0.409001 0,-0.09543 0.122701,-0.545334 0.286301,-1.008868 l 0.272667,-0.858902 -0.272667,-0.204501 c -0.272667,-0.190867 -0.272667,-0.2045 0.313567,-1.308802 0.327201,-0.613501 0.886169,-1.636003 1.240636,-2.276771 0.368101,-0.640768 0.804368,-1.445136 0.981602,-1.813237 0.177234,-0.354467 0.395367,-0.640768 0.490801,-0.640768 0.09543,0 0.395367,0.286301 0.681668,0.640768 1.58147,2.058637 2.235871,2.835739 2.372205,2.835739 0.0818,0 0.558967,-0.381734 1.063402,-0.858902 0.518067,-0.463534 1.036135,-0.845268 1.158835,-0.845268 0.204501,0 0.545335,0.504434 0.545335,0.818001 0,0.136334 0.504434,1.29517 0.981602,2.290405 0.272667,0.558968 2.263137,2.508538 2.644871,2.590338 0.204501,0.05453 1.486037,-1.267902 1.486037,-1.513303 0,-0.0818 -0.395368,-0.1636 -0.886169,-0.190867 -1.813237,-0.109067 -2.999339,-0.477167 -2.999339,-0.927068 0,-0.109067 0.313567,-0.790735 0.695301,-1.49967 l 0.695302,-1.308802 -0.163601,-1.281536 c -0.09543,-0.708935 -0.136333,-1.37697 -0.09543,-1.486036 0.109067,-0.259034 0.463534,-0.136334 0.572601,0.177233 0.0409,0.136334 0.286301,0.477168 0.531701,0.763468 l 0.477168,0.531701 0.845268,-0.818001 c 1.254269,-1.199736 4.021841,-3.844608 4.798943,-4.594442 0.790735,-0.777102 1.104302,-0.790735 1.158835,-0.05453 0.02727,0.272667 0.0818,0.504434 0.136334,0.504434 0.2045,0 2.794839,-2.045004 3.190206,-2.508538 0.204501,-0.2454 0.245401,-0.586234 0.245401,-2.167704 v -1.86777 l -0.368101,0.01363 c -0.218134,0 -0.777102,0.1227 -1.254269,0.259034 z"
       id="path8032"
       style="display:inline;fill:#ffffff;stroke:none;stroke-width:0.0136334" />
    <path
       d="m 36.514696,72.359351 c -0.163601,0.177234 -0.572602,0.708935 -0.886169,1.199736 -0.627134,0.927069 -0.640768,0.927069 -1.799603,0.790735 l -0.395368,-0.05453 -0.190867,1.158835 -0.190867,1.158836 1.854137,1.799603 c 1.036135,0.995236 1.963204,1.813237 2.072271,1.813237 0.109067,0 0.477167,-0.272667 0.831635,-0.599868 l 0.640768,-0.613501 0.01363,-1.267902 c 0.01363,-0.954336 0.09543,-1.45877 0.313567,-2.017738 0.163601,-0.409 0.299934,-0.818001 0.299934,-0.913435 0,-0.1636 -1.554203,-2.126804 -2.004104,-2.522171 -0.259034,-0.231767 -0.272667,-0.231767 -0.558967,0.06817 z"
       id="path8034"
       style="display:inline;fill:#ffffff;stroke:none;stroke-width:0.0136334" />
    <path
       d="m 39.813969,84.520309 c -0.05453,0.109066 0.231767,0.681668 0.640768,1.322436 l 0.708934,1.117935 0.09543,1.404236 c 0.0409,0.777102 0.0409,1.70417 -0.01363,2.058637 -0.0409,0.354468 -0.1636,1.131569 -0.2454,1.731437 -0.259034,1.772337 -0.272667,1.799604 -0.804368,2.126804 -1.78597,1.063402 -2.113171,1.213369 -3.28564,1.404236 -0.668035,0.109067 -1.376969,0.272668 -1.595103,0.381735 -0.218134,0.109066 -0.763468,0.272667 -1.213369,0.3681 -0.449901,0.09543 -0.872535,0.190867 -0.954335,0.218134 -0.06817,0.01363 0.995235,0 2.385838,-0.0409 2.222237,-0.05453 2.549438,-0.0409 2.713038,0.1636 0.245401,0.299934 0.409001,0.272667 0.722568,-0.1227 0.340834,-0.436268 0.927069,-0.449901 1.826871,-0.0409 0.558967,0.2454 0.995235,0.299934 2.685771,0.354467 1.758704,0.05453 2.045004,0.02727 2.276772,-0.177233 0.231767,-0.204501 0.354467,-0.218134 1.458769,-0.05453 0.654401,0.09543 2.154071,0.190867 3.312907,0.204501 2.999339,0.0409 6.135012,0.218133 6.216812,0.354467 0.0409,0.05453 0.190867,0.109067 0.340834,0.109067 0.149967,0 0.313567,0.109067 0.354467,0.2454 0.05453,0.122701 0.149967,0.272667 0.231767,0.327201 0.218134,0.149967 3.353807,0.136334 3.353807,-0.01363 0,-0.163601 -0.845269,-0.286301 -1.949571,-0.286301 -0.763468,0 -1.036135,-0.06817 -1.649636,-0.409001 -0.668035,-0.381734 -0.927069,-0.436267 -2.972073,-0.613501 -3.721907,-0.327201 -4.703509,-0.449901 -4.976176,-0.586234 -0.136334,-0.06817 -0.558968,-0.163601 -0.954335,-0.204501 -1.090669,-0.1227 -1.826871,-0.586234 -2.617605,-1.62237 -0.218134,-0.299934 -0.545335,-1.66327 -0.558968,-2.317671 0,-0.681668 -0.231767,-0.777101 -0.640768,-0.259034 -0.177234,0.231767 -0.463534,0.422634 -0.613501,0.422634 -0.463535,0 -1.976838,-0.927068 -2.072271,-1.267902 -0.0409,-0.177234 -0.136334,-0.858902 -0.218134,-1.526936 -0.0818,-0.681668 -0.2045,-1.66327 -0.272667,-2.181338 -0.06817,-0.531701 -0.177234,-1.308803 -0.218134,-1.731437 -0.09543,-0.763468 -0.109067,-0.790735 -0.586234,-0.927068 -0.668035,-0.177234 -0.831635,-0.177234 -0.913435,0.06817 z"
       id="path8036"
       style="display:inline;fill:#f3221d;fill-opacity:1;stroke:none;stroke-width:0.0136334" />
    <path
       d="m 62.799814,87.724148 c -0.190867,0.05453 -0.586235,0.1227 -0.886169,0.136334 -0.299934,0.01363 -0.763468,0.09543 -1.022502,0.2045 -0.463534,0.163601 -0.463534,0.177234 -0.136333,0.245401 0.190867,0.0409 0.777101,0.1227 1.322436,0.1636 0.886168,0.06817 0.995235,0.05453 1.117935,-0.190867 0.177234,-0.313567 0.190867,-0.695301 0.05453,-0.681668 -0.06817,0.01363 -0.259033,0.06817 -0.4499,0.1227 z"
       id="path8038"
       style="display:inline;fill:#ffffff;stroke:none;stroke-width:0.0136334" />
    <path
       d="m 64.081349,87.819582 c 0.09543,0.1636 2.658506,1.472403 2.726672,1.390602 0.02727,-0.02727 0.0818,-0.299933 0.109067,-0.599867 l 0.0409,-0.545335 -1.022502,-0.1636 c -1.199735,-0.190867 -1.94957,-0.218134 -1.854137,-0.0818 z"
       id="path8040"
       style="display:inline;fill:#ffffff;stroke:none;stroke-width:0.0136334" />
    <path
       d="m 61.845478,90.49172 c -1.636003,0.818002 -1.70417,0.858902 -1.676903,1.254269 0.01363,0.218134 0.05453,0.899802 0.09543,1.49967 0.0409,0.763468 0.109067,1.077035 0.231767,1.049769 0.09543,-0.02727 0.722568,-0.340834 1.390602,-0.722568 0.668035,-0.368101 1.29517,-0.668035 1.390603,-0.668035 0.0818,0 0.599868,0.340834 1.145202,0.763468 0.545335,0.409001 1.049769,0.736202 1.131569,0.708935 0.06817,-0.02727 0.327201,-0.668035 0.586235,-1.431503 0.409001,-1.281536 0.422634,-1.404236 0.218134,-1.58147 -0.286301,-0.2454 -2.672139,-1.731436 -2.740306,-1.717803 -0.0409,0 -0.831635,0.381734 -1.772337,0.845268 z"
       id="path8042"
       style="display:inline;fill:#ffffff;stroke:none;stroke-width:0.0136334" />
    <path
       d="m 68.621258,92.877558 c -0.02727,0.572601 -0.0409,1.063402 -0.02727,1.090669 0.02727,0.02727 0.177233,-0.02727 0.340834,-0.109067 0.231767,-0.1227 0.2863,-0.2454 0.218133,-0.518067 -0.05453,-0.204501 -0.1227,-0.599868 -0.177233,-0.886169 -0.136334,-0.858902 -0.272668,-0.695301 -0.354468,0.422634 z"
       id="path8044"
       style="display:inline;fill:#ffffff;stroke:none;stroke-width:0.0136334" />
    <path
       d="m 24.599139,97.635601 c 0.0818,0.02727 0.2454,0.02727 0.340834,0 0.0818,-0.0409 0.01363,-0.06817 -0.177234,-0.06817 -0.190867,0 -0.259034,0.02727 -0.1636,0.06817 z"
       id="path8046"
       style="display:inline;fill:#000000;stroke:none;stroke-width:0.0136334" />
    <path
       d="m 61.709145,97.949168 c 0.272667,0.177234 0.995235,0.177234 0.886168,0 -0.0409,-0.0818 -0.313567,-0.136333 -0.586234,-0.136333 -0.381734,0 -0.449901,0.0409 -0.299934,0.136333 z"
       id="path8048"
       style="display:inline;fill:#ffffff;stroke:none;stroke-width:0.0136334" />
    <path
       d="m 63.413315,98.221835 c 0.381734,0.163603 0.504434,0.163603 0.409001,0 -0.0409,-0.0818 -0.218134,-0.136333 -0.381734,-0.1227 -0.286301,0 -0.286301,0.01363 -0.02727,0.1227 z"
       id="path8050"
       style="display:inline;fill:#ffffff;stroke:none;stroke-width:0.0136334" />
    <g
       id="g8068"
       transform="matrix(0.93963913,0,0,0.93963913,-43.023897,30.573601)"
       style="display:inline;fill:#ffffff">
      <text
         xml:space="preserve"
         style="font-style:normal;font-variant:normal;font-weight:bold;font-stretch:normal;font-size:44.2248px;line-height:1.25;font-family:Verdana;-inkscape-font-specification:'Verdana, Bold';font-variant-ligatures:normal;font-variant-caps:normal;font-variant-numeric:normal;font-variant-east-asian:normal;stroke-width:1.38202;fill:#ffffff"
         x="158.77217"
         y="64.946175"
         id="text8056"
         transform="scale(1.1221046,0.89118253)"><tspan
           sodipodi:role="line"
           id="tspan8054"
           style="font-style:normal;font-variant:normal;font-weight:bold;font-stretch:normal;font-size:44.2248px;font-family:Verdana;-inkscape-font-specification:'Verdana, Bold';font-variant-ligatures:normal;font-variant-caps:normal;font-variant-numeric:normal;font-variant-east-asian:normal;stroke-width:1.38202;fill:#ffffff"
           x="158.77217"
           y="64.946175">KB</tspan></text>
      <g
         id="g8066"
         transform="matrix(5.8612021,0,0,4.6550037,-662.3231,-454.9591)"
         style="fill:#ffffff">
        <text
           xml:space="preserve"
           style="font-style:normal;font-variant:normal;font-weight:bold;font-stretch:normal;font-size:8.46667px;line-height:1.25;font-family:Verdana;-inkscape-font-specification:'Verdana, Bold';font-variant-ligatures:normal;font-variant-caps:normal;font-variant-numeric:normal;font-variant-east-asian:normal;stroke-width:0.264583;fill:#ffffff"
           x="134.25987"
           y="110.16919"
           id="text8060"><tspan
             sodipodi:role="line"
             id="tspan8058"
             style="font-style:normal;font-variant:normal;font-weight:bold;font-stretch:normal;font-size:8.46667px;font-family:Verdana;-inkscape-font-specification:'Verdana, Bold';font-variant-ligatures:normal;font-variant-caps:normal;font-variant-numeric:normal;font-variant-east-asian:normal;stroke-width:0.264583;fill:#ffffff"
             x="134.25987"
             y="110.16919">V</tspan></text>
        <text
           xml:space="preserve"
           style="font-style:normal;font-variant:normal;font-weight:bold;font-stretch:normal;font-size:8.46667px;line-height:1.25;font-family:Verdana;-inkscape-font-specification:'Verdana, Bold';font-variant-ligatures:normal;font-variant-caps:normal;font-variant-numeric:normal;font-variant-east-asian:normal;stroke-width:0.264583;fill:#ffffff"
           x="136.90567"
           y="110.16919"
           id="text8064"><tspan
             sodipodi:role="line"
             id="tspan8062"
             style="font-style:normal;font-variant:normal;font-weight:bold;font-stretch:normal;font-size:8.46667px;font-family:Verdana;-inkscape-font-specification:'Verdana, Bold';font-variant-ligatures:normal;font-variant-caps:normal;font-variant-numeric:normal;font-variant-east-asian:normal;stroke-width:0.264583;fill:#ffffff"
             x="136.90567"
             y="110.16919">V</tspan></text>
      </g>
    </g>
    <text
       xml:space="preserve"
       style="font-style:normal;font-variant:normal;font-weight:bold;font-stretch:normal;font-size:8.31537px;line-height:1.25;font-family:Verdana;-inkscape-font-specification:'Verdana, Bold';font-variant-ligatures:normal;font-variant-caps:normal;font-variant-numeric:normal;font-variant-east-asian:normal;display:inline;fill:#ffffff;stroke-width:0.259855"
       x="74.334709"
       y="95.964836"
       id="text8072"><tspan
         sodipodi:role="line"
         id="tspan8070"
         style="font-style:normal;font-variant:normal;font-weight:bold;font-stretch:normal;font-size:8.31537px;font-family:Verdana;-inkscape-font-specification:'Verdana, Bold';font-variant-ligatures:normal;font-variant-caps:normal;font-variant-numeric:normal;font-variant-east-asian:normal;fill:#ffffff;stroke-width:0.259855"
         x="74.334709"
         y="95.964836">World Kyokushin Budokai</tspan></text>
  </g>
</svg>
